<svg height="682pt" viewBox="-21 -52 682.66669 682" width="682pt" xmlns="http://www.w3.org/2000/svg"><path d="m226.347656 73.527344c24.898438-24.304688 57.773438-37.695313 92.566406-37.695313 35.289063 0 69.71875 14.429688 94.464844 39.589844 3.671875 3.730469 8.519532 5.601563 13.371094 5.601563 4.742188 0 9.496094-1.792969 13.140625-5.378907 7.382813-7.261719 7.488281-19.136719.226563-26.519531-31.75-32.277344-75.929688-50.792969-121.203126-50.792969-44.640624 0-86.820312 17.175781-118.761718 48.367188-7.410156 7.230469-7.550782 19.101562-.316406 26.511719 7.234374 7.40625 19.105468 7.550781 26.511718.316406zm0 0"/><path d="m252.648438 100.460938c-7.410157 7.238281-7.550782 19.109374-.320313 26.515624 7.238281 7.410157 19.109375 7.554688 26.519531.320313 10.777344-10.519531 25.003906-16.316406 40.066406-16.316406 15.273438 0 30.179688 6.246093 40.890626 17.132812 3.671874 3.734375 8.515624 5.605469 13.367187 5.605469 4.75 0 9.5-1.792969 13.148437-5.378906 7.386719-7.265625 7.484376-19.136719.222657-26.519532-17.714844-18.007812-42.363281-28.339843-67.628907-28.339843-24.910156 0-48.441406 9.585937-66.265624 26.980469zm0 0"/><path d="m233.21875 367.851562c11.722656 0 21.257812-9.53125 21.257812-21.257812 0-11.71875-9.535156-21.253906-21.257812-21.253906-11.71875 0-21.257812 9.535156-21.257812 21.253906 0 11.726562 9.539062 21.257812 21.257812 21.257812zm0 0"/><path d="m341.585938 378.019531c7.085937 0 12.84375-5.761719 12.84375-12.839843 0-7.082032-5.757813-12.84375-12.84375-12.84375-7.078126 0-12.839844 5.761718-12.839844 12.84375 0 7.078124 5.761718 12.839843 12.839844 12.839843zm0 0"/><path d="m124.34375 378.019531c7.082031 0 12.84375-5.761719 12.84375-12.839843 0-7.082032-5.761719-12.84375-12.84375-12.84375-7.078125 0-12.839844 5.761718-12.839844 12.84375 0 7.078124 5.761719 12.839843 12.839844 12.839843zm0 0"/><path d="m582.542969 178.332031h-95.042969v398.75h95.042969c31.683593 0 57.457031-25.769531 57.457031-57.453125v-283.839844c0-31.683593-25.777344-57.457031-57.457031-57.457031zm-17.542969 249.375c0 10.359375-8.394531 18.75-18.75 18.75s-18.75-8.390625-18.75-18.75v-100c0-10.355469 8.394531-18.75 18.75-18.75s18.75 8.394531 18.75 18.75zm0 0"/><path d="m0 235.789062v283.839844c0 31.683594 25.777344 57.453125 57.457031 57.453125h392.542969v-398.75h-392.542969c-31.679687 0-57.457031 25.773438-57.457031 57.457031zm58.550781 195.109376c3.457031-15.617188 11.996094-28.867188 23.675781-38.195313-5.191406-7.914063-8.222656-17.367187-8.222656-27.523437 0-27.757813 22.582032-50.34375 50.339844-50.34375 27.761719 0 50.34375 22.585937 50.34375 50.34375 0 10.15625-3.03125 19.609374-8.222656 27.523437 1.699218 1.359375 3.332031 2.808594 4.886718 4.328125 3.449219-4.175781 7.316407-8.015625 11.5625-11.425781 1.289063-1.03125 2.613282-2.007813 3.957032-2.957031-7.765625-9.960938-12.410156-22.46875-12.410156-36.054688 0-32.394531 26.359374-58.753906 58.757812-58.753906s58.753906 26.359375 58.753906 58.753906c0 13.585938-4.644531 26.09375-12.40625 36.054688 1.339844.949218 2.664063 1.921874 3.949219 2.957031 4.160156 3.339843 7.945313 7.082031 11.335937 11.152343 1.476563-1.421874 3.015626-2.773437 4.617188-4.054687-5.191406-7.914063-8.222656-17.367187-8.222656-27.523437 0-27.757813 22.582031-50.34375 50.339844-50.34375 27.757812 0 50.34375 22.585937 50.34375 50.34375 0 10.15625-3.03125 19.609374-8.222657 27.523437 11.679688 9.328125 20.21875 22.578125 23.671875 38.195313 2.234375 10.109374-4.144531 20.121093-14.257812 22.355468-10.109375 2.242188-20.117188-4.148437-22.355469-14.257812-3.050781-13.796875-15.054687-23.429688-29.179687-23.429688-14.128907 0-26.132813 9.632813-29.179688 23.429688-1.9375 8.746094-9.6875 14.707031-18.289062 14.707031-.097657 0-.195313-.011719-.292969-.019531-8.792969.234375-16.808594-5.773438-18.78125-14.6875-4.375-19.773438-21.574219-33.585938-41.832031-33.585938-20.25 0-37.449219 13.8125-41.824219 33.585938-1.933594 8.746094-9.6875 14.707031-18.292969 14.707031-.195312 0-.390625-.027344-.578125-.03125-8.882813.332031-17.007813-5.691406-18.996094-14.675781-3.050781-13.792969-15.046875-23.429688-29.179687-23.429688-14.125 0-26.128906 9.636719-29.179688 23.429688-1.933594 8.75-9.6875 14.707031-18.289062 14.707031-1.339844 0-2.699219-.144531-4.066406-.449219-10.109376-2.238281-16.492188-12.246094-14.253907-22.355468zm0 0"/></svg>